<?xml version="1.0" encoding="UTF-8" standalone="no"?>
<svg
   viewBox="0 0 24 24"
   version="1.1"
   id="svg2"
   xml:space="preserve"
   sodipodi:docname="free2move.svg"
   inkscape:version="1.3.2 (091e20ef0f, 2023-11-25)"
   width="24"
   height="24"
   inkscape:export-filename="free2move.png"
   inkscape:export-xdpi="1024"
   inkscape:export-ydpi="1024"
   xmlns:inkscape="http://www.inkscape.org/namespaces/inkscape"
   xmlns:sodipodi="http://sodipodi.sourceforge.net/DTD/sodipodi-0.dtd"
   xmlns="http://www.w3.org/2000/svg"
   xmlns:svg="http://www.w3.org/2000/svg"><sodipodi:namedview
     id="namedview1"
     pagecolor="#291720"
     bordercolor="#000000"
     borderopacity="0.25"
     inkscape:showpageshadow="2"
     inkscape:pageopacity="0.0"
     inkscape:pagecheckerboard="0"
     inkscape:deskcolor="#262626"
     inkscape:export-bgcolor="#291720ff"
     inkscape:zoom="26.62699"
     inkscape:cx="10.440534"
     inkscape:cy="13.163336"
     inkscape:window-width="3440"
     inkscape:window-height="1403"
     inkscape:window-x="0"
     inkscape:window-y="0"
     inkscape:window-maximized="1"
     inkscape:current-layer="svg2" /><defs
     id="defs2" /><path
     id="path6"
     style="display:inline;fill:#731dd8;fill-opacity:1;stroke-width:0.0468749"
     d="m 7.5890808,11.90625 c -0.6468746,0 -1.171875,0.525 -1.171875,1.171875 0,0.646875 0.5250004,1.171875 1.171875,1.171875 h 8.8218382 c 0.646875,0 1.171875,-0.525 1.171875,-1.171875 0,-0.646875 -0.525,-1.171875 -1.171875,-1.171875 z m 0.4453125,2.872467 c -0.323437,0 -0.5859375,0.2625 -0.5859375,0.585938 0,0.323437 0.2625005,0.585937 0.5859375,0.585937 h 7.9312137 c 0.323437,0 0.585937,-0.2625 0.585937,-0.585937 0,-0.323438 -0.2625,-0.585938 -0.585937,-0.585938 z m 5.7234197,1.700592 -3.515625,1.359375 v 1.056061 h 3.515625 z m -4.4537663,2.960724 -0.46875,1.40625 h 6.3294063 l -0.46875,-1.40625 z m -1.5,1.934967 -0.46875,1.40625 H 16.664703 L 16.195953,21.375 Z"
     inkscape:label="thumbstick" /><path
     id="path15"
     style="display:inline;fill:#41ead4;fill-opacity:1;stroke-width:0.0468749"
     d="m 20.4375,0.5625 0.375,2.015625 -2.203125,1.78125 0.28125,2.109375 -1.78125,-1.359375 1.40625,-3.703125 -2.760956,4.03125 2.901581,2.671875 -1.949982,3.037537 c 0.4875,0.075 0.914082,0.328088 1.214081,0.689026 l 2.939026,-1.054688 -2.15625,-0.328125 1.6875,-1.875 -0.75,-3.84375 3,-2.0625 z M 1.078125,0.796875 3.5625,4.6875 l -2.015625,0.75 1.78125,6.140625 2.0625,-1.453125 0.8625183,1.523438 c 0.342187,-0.314063 0.7968389,-0.515589 1.2984009,-0.524964 L 6.3562317,7.3640442 4.265625,8.859375 3.140625,6.328125 5.71875,5.109375 Z M 14.0625,1.453125 15.09375,4.59375 15.754669,3.65625 Z M 10.790588,2.5640259 10.078125,4.734375 7.9453125,4.4577942 7.2421875,6.9609375 7.6499634,8.9765625 8.8265991,5.7984009 11.278107,5.7094116 Z M 5.53125,14.765625 l -3.46875,3.1875 3.09375,-1.3125 z m 12.665588,1.640625 0.792206,3.421875 1.087555,-0.796875 1.664063,1.828125 -1.068787,-3.923401 -0.928162,0.951508 z"
     inkscape:label="lightning" /></svg>
